<?xml version="1.0" standalone="no"?>
<!DOCTYPE svg PUBLIC "-//W3C//DTD SVG 20010904//EN"
 "http://www.w3.org/TR/2001/REC-SVG-20010904/DTD/svg10.dtd">
<svg version="1.0" xmlns="http://www.w3.org/2000/svg"
 width="361.000000pt" height="362.000000pt" viewBox="0 0 361.000000 362.000000"
 preserveAspectRatio="xMidYMid meet">

<g transform="translate(0.000000,362.000000) scale(0.100000,-0.100000)"
fill="#000000" stroke="none">
<path d="M895 3390 c-11 -4 -47 -16 -80 -26 -93 -29 -227 -101 -292 -159 -108
-96 -233 -255 -249 -319 -3 -14 -10 -26 -15 -26 -5 0 -9 -10 -9 -22 0 -13 -7
-36 -15 -52 -8 -15 -15 -39 -15 -52 0 -12 -4 -26 -10 -29 -13 -8 -14 -1754 -1
-1787 5 -13 16 -48 26 -78 16 -53 63 -159 75 -170 3 -3 21 -30 41 -60 36 -53
128 -155 179 -195 40 -32 151 -100 195 -119 22 -9 47 -21 55 -25 8 -4 39 -14
68 -20 28 -7 55 -17 58 -22 7 -12 1751 -12 1758 0 3 5 30 15 58 22 29 6 60 16
68 20 8 5 35 17 60 28 60 27 158 88 211 131 35 29 140 145 167 186 25 37 33
51 38 66 4 10 10 18 15 18 5 0 9 5 9 11 0 6 7 27 16 47 9 21 20 46 25 57 5 11
13 40 18 65 6 24 15 46 20 48 8 3 11 277 11 887 0 735 -2 884 -14 888 -7 3
-16 28 -20 56 -4 27 -11 53 -16 56 -6 3 -10 15 -10 26 0 10 -4 19 -10 19 -5 0
-10 5 -10 11 0 12 -31 81 -39 89 -4 3 -23 30 -43 60 -104 154 -288 290 -463
344 -33 10 -68 22 -77 27 -22 11 -1755 11 -1783 -1z m1205 -679 c81 -16 197
-69 232 -107 15 -16 40 -57 57 -91 17 -34 35 -65 41 -68 5 -3 10 -14 10 -23 0
-10 13 -44 30 -77 16 -33 30 -66 30 -72 0 -17 -2 -17 64 12 66 29 86 31 129 9
63 -32 67 -40 67 -131 0 -82 -1 -85 -32 -113 -32 -29 -52 -35 -165 -43 -50 -4
-54 -3 -72 28 -10 18 -40 46 -66 64 -48 33 -49 33 -155 29 l-107 -3 -57 -48
c-31 -27 -56 -54 -56 -61 0 -9 -15 -11 -55 -8 -82 7 -138 -13 -200 -70 -70
-64 -100 -136 -90 -220 4 -40 3 -58 -5 -58 -6 0 -18 -7 -26 -15 -8 -8 -24 -21
-36 -29 -11 -8 -29 -40 -39 -72 -20 -61 -26 -179 -9 -189 32 -20 -6 -25 -185
-25 l-195 0 -1 -32 c-1 -55 -22 -101 -58 -125 -29 -19 -47 -23 -118 -23 -104
0 -144 15 -167 64 -16 33 -17 68 -14 334 4 309 5 315 52 413 l23 47 -38 6
c-21 3 -51 18 -68 32 -30 25 -31 28 -31 111 0 81 1 86 27 107 68 53 95 57 171
21 30 -14 55 -25 57 -25 2 0 12 24 23 53 55 145 103 230 166 292 67 67 104 84
231 105 32 5 60 12 63 15 11 11 507 -2 572 -14z m257 -746 c15 -10 23 -30 28
-66 5 -34 12 -52 24 -55 9 -3 30 -12 47 -20 25 -12 35 -13 57 -3 15 7 27 15
27 19 0 13 53 31 73 24 11 -4 36 -21 55 -40 46 -45 53 -98 18 -138 -31 -34
-31 -33 -9 -82 9 -22 16 -42 15 -46 -1 -3 22 -11 50 -18 74 -15 78 -21 78
-105 0 -66 -2 -74 -25 -89 -13 -9 -34 -16 -45 -16 -36 0 -56 -17 -74 -65 -18
-45 -18 -45 8 -89 37 -64 34 -86 -19 -135 -51 -47 -74 -50 -118 -19 -34 24
-83 28 -128 10 -22 -9 -27 -19 -33 -59 -10 -74 -32 -93 -106 -93 -36 0 -67 5
-74 13 -22 22 -36 55 -36 85 0 35 -11 46 -66 62 -39 12 -44 11 -80 -14 -53
-36 -77 -33 -128 14 -51 47 -64 92 -35 121 37 37 42 58 24 102 -19 47 -40 66
-73 67 -13 0 -36 7 -52 15 -29 15 -30 19 -30 81 0 56 4 68 25 89 13 14 34 25
47 25 50 0 64 11 82 61 l18 49 -28 37 c-20 26 -27 47 -25 68 3 35 50 88 93
106 27 11 33 9 74 -20 49 -34 56 -36 82 -21 9 5 29 14 45 20 23 8 27 15 27 48
0 61 37 92 109 92 34 0 65 -6 78 -15z"/>
<path d="M1155 1875 c-18 -17 -25 -35 -25 -64 0 -41 17 -90 35 -103 5 -4 65
-8 133 -8 120 0 124 1 147 26 34 36 32 70 -6 105 -17 16 -34 29 -38 29 -4 0
-50 9 -101 20 -117 25 -116 25 -145 -5z"/>
<path d="M2228 1611 c-36 -12 -97 -61 -112 -91 -8 -14 -14 -53 -14 -87 0 -50
5 -70 26 -102 64 -100 234 -101 301 -2 17 25 26 54 29 96 4 57 2 64 -29 104
-19 24 -45 52 -59 63 -29 21 -103 31 -142 19z"/>
</g>
</svg>
